<svg width="1600" height="900" viewBox="0 0 1600 900" fill="none" xmlns="http://www.w3.org/2000/svg">
  <rect width="1600" height="900" fill="#F7F3EC"/>
  <rect x="56" y="56" width="1488" height="788" rx="28" fill="#FBF9F4" stroke="#171717" stroke-width="2"/>
  <path d="M1096 0H1600V390C1520 424 1427 455 1320 470C1199 487 1097 473 1022 450L1096 0Z" fill="#E8E0D1"/>
  <path d="M0 900H720C657 841 618 774 603 698C587 618 599 538 636 460L0 460V900Z" fill="#EFE7D8"/>
  <circle cx="1260" cy="232" r="106" fill="#171717"/>
  <circle cx="1260" cy="232" r="68" fill="#FBF9F4"/>
  <path d="M1260 90V126" stroke="#171717" stroke-width="10" stroke-linecap="round"/>
  <path d="M1260 338V374" stroke="#171717" stroke-width="10" stroke-linecap="round"/>
  <path d="M1366 232H1402" stroke="#171717" stroke-width="10" stroke-linecap="round"/>
  <path d="M1118 232H1154" stroke="#171717" stroke-width="10" stroke-linecap="round"/>
  <path d="M1336 156L1361 131" stroke="#171717" stroke-width="10" stroke-linecap="round"/>
  <path d="M1159 333L1184 308" stroke="#171717" stroke-width="10" stroke-linecap="round"/>
  <path d="M1184 156L1159 131" stroke="#171717" stroke-width="10" stroke-linecap="round"/>
  <path d="M1361 333L1336 308" stroke="#171717" stroke-width="10" stroke-linecap="round"/>
  <text x="128" y="170" fill="#171717" font-family="'STIX Two Text', Georgia, serif" font-size="36" letter-spacing="0.08em">
    BLAKER.BLOG
  </text>
  <text x="128" y="364" fill="#171717" font-family="'STIX Two Text', Georgia, serif" font-size="96" font-weight="600">
    Why am I
  </text>
  <text x="128" y="470" fill="#171717" font-family="'STIX Two Text', Georgia, serif" font-size="96" font-weight="600">
    starting a blog
  </text>
  <text x="128" y="576" fill="#171717" font-family="'STIX Two Text', Georgia, serif" font-size="96" font-weight="600">
    in 2026?
  </text>
  <text x="132" y="680" fill="#4B4B4B" font-family="'Geist Mono Variable', 'Courier New', monospace" font-size="32">
    Start here.
  </text>
  <path d="M128 742H748" stroke="#171717" stroke-width="2"/>
  <text x="128" y="792" fill="#171717" font-family="'Geist Mono Variable', 'Courier New', monospace" font-size="28">
    FIRST POST
  </text>
</svg>
